<svg xmlns="http://www.w3.org/2000/svg" version="1.1" xmlns:xlink="http://www.w3.org/1999/xlink" xmlns:svgjs="http://svgjs.dev/svgjs" width="100%" height="100%" viewBox="0 0 1000 600"><rect width="1000" height="600" x="0" y="0" fill="#358597"/><g><rect width="333.3333333333333" height="333.3333333333333" y="136.25335901775117" fill="#f4a896" transform="matrix(1.096191586408942,0,0,1.096191586408942,0,-32.05839950146499)" x="114.03113555908203"/><path d="M216.743767475342 245.05886909693888L216.743767475342 227.92003207862942L272.55052249555166 227.92003207862942Q282.8225676707289 227.92003207862942 292.13776480219104 230.5935780831276Q301.4248193441321 233.2671240876258 309.4454573576267 238.10764948524357Q317.4660953711213 242.9763174723824 323.9951761400011 249.7586815469515Q330.5242569088809 256.5129030319996 335.1114990008094 264.84310953022555Q339.72688368225886 273.14517343893044 342.20343156010983 282.68551128656077Q344.65183684843976 292.2258491341912 344.65183684843976 302.5260368988895L344.65183684843976 302.5260368988895Q344.65183684843976 313.023222790235 342.20343156010983 322.61984581690757Q339.72688368225886 332.21646884358 335.1114990008094 340.631103110369Q330.5242569088809 349.01759478763705 323.9951761400011 355.9125292202903Q317.4660953711213 362.7793210634225 309.4454573576267 367.67613164008236Q301.4248193441321 372.5729422167422 292.13776480219104 375.2464882212403Q282.8225676707289 377.92003422573856 272.55052249555166 377.92003422573856L272.55052249555166 377.92003422573856L216.743767475342 377.92003422573856L216.743767475342 360.8937675655132L230.983917772985 360.8937675655132L230.983917772985 245.05886909693888L216.743767475342 245.05886909693888ZM273.73251125543504 245.05886909693888L250.37416195297715 245.05886909693888L250.37416195297715 360.8937675655132L273.73251125543504 360.8937675655132Q284.11712678869645 360.8937675655132 293.2634683830324 356.3628106526268Q302.4098099773683 351.8037111502194 309.2484592309795 343.92378608432995Q316.0589658950696 336.07200360796156 320.0270710175354 325.43410476901084Q323.9951761400011 314.7962059300601 323.9951761400011 302.5260368988895L323.9951761400011 302.5260368988895Q323.9951761400011 290.4528659943661 320.0270710175354 279.9838226925416Q316.0589658950696 269.486636801196 309.2484592309795 261.7192820933908Q302.4098099773683 253.95192738558552 293.2634683830324 249.50539824126218Q284.11712678869645 245.05886909693888 273.73251125543504 245.05886909693888L273.73251125543504 245.05886909693888Z " fill="#358597" transform="matrix(1.096191586408942,0,0,1.096191586408942,0,-32.05839950146499)"/><path d="M576.5229464207556 240.63403668778662L576.5229464207556 227.9200320170042L600.7090248424923 227.9200320170042L600.7090248424923 330.32670871130307L611.9706018273741 330.32670871130307L611.9706018273741 343.06176305869275L586.9425363413471 343.06176305869275L586.9425363413471 336.7679097531233Q583.2588429350774 340.53580186582207 578.375317962194 342.66181920315483Q573.4707433127035 344.76678686388044 567.2610887135631 344.76678686388044L567.2610887135631 344.76678686388044Q559.4937580454857 344.76678686388044 552.7999608843784 342.0724282581518Q546.1061637232712 339.3570199758157 541.1805393971733 334.13670017721637Q536.2549150710754 328.9374300552242 533.4763577589177 321.33849680000486Q530.69780044676 313.7606132213928 530.69780044676 303.99356327562623L530.69780044676 303.99356327562623Q530.69780044676 295.1105997473643 533.3711093758814 287.8274116412539Q536.0444183050029 280.5231738585361 540.9279432778862 275.38705276636574Q545.8114682507696 270.2509316741954 552.6947125013421 267.3881756556086Q559.5779567519148 264.54646931362913 567.997827394817 264.54646931362913L567.997827394817 264.54646931362913Q573.5549420191326 264.54646931362913 578.1437715195143 265.7673505568499Q582.732601019896 266.9882318000707 586.9425363413471 270.01938523151557L586.9425363413471 270.01938523151557L586.9425363413471 240.63403668778662L576.5229464207556 240.63403668778662ZM569.0503112251798 332.76847119774476L569.0503112251798 332.76847119774476Q575.1757671178912 332.76847119774476 579.3225534095207 330.9581990095207Q583.4693397011499 329.1479268212967 586.9425363413471 325.5273824448488L586.9425363413471 325.5273824448488L586.9425363413471 282.6070918426544Q583.2588429350774 279.49173970478057 578.4384669920158 278.0814113720945Q573.6391407255616 276.67108303940836 568.5872183398202 276.67108303940836L568.5872183398202 276.67108303940836Q563.7036933669369 276.67108303940836 559.430609015664 278.5024049042396Q555.1364749877838 280.31267709246356 551.9158744668737 283.7858737326608Q548.6952739459635 287.259070372858 546.8429024045251 292.2899430819921Q544.9905308630866 297.32081579112617 544.9905308630866 303.8462155393754L544.9905308630866 303.8462155393754Q544.9905308630866 310.93995655602055 546.758703698096 316.3497234440853Q548.5479262097128 321.7384406555428 551.7264273774084 325.4221340618125Q554.904928545104 329.084777791475 559.3464103092349 330.91609965630624Q563.7878920733659 332.76847119774476 569.0503112251798 332.76847119774476ZM622.0954962754641 279.11284552585005L622.0954962754641 266.39884085506753L646.5131211398807 266.39884085506753L646.5131211398807 272.7558431904588Q651.3966461127641 268.98795107776004 657.1853071797593 266.7566853573909Q662.9529185701474 264.54646931362913 669.099424139466 264.54646931362913L669.099424139466 264.54646931362913Q676.6352083648636 264.54646931362913 682.929061670433 267.36712597900134Q689.2229149760025 270.1667329677664 693.7696451231697 275.2818043833295Q698.316375270337 280.3758261222854 700.8423364632076 287.53271616875224Q703.347247979471 294.66855653861194 703.347247979471 303.31997362419406L703.347247979471 303.31997362419406Q703.347247979471 312.58183133138647 700.5476409907061 320.20181426321307Q697.7269843253338 327.82179719503966 692.7382109694141 333.25261375971166Q687.7494376134946 338.7044800009908 680.866193362922 341.7356334324356Q673.9829491123494 344.76678686388044 665.7525255589125 344.76678686388044L665.7525255589125 344.76678686388044Q659.9217651387025 344.76678686388044 655.3750349915354 343.54590562065965Q650.8072551677609 342.32502437743875 646.6604688761315 340.38845412957124L646.6604688761315 340.38845412957124L646.6604688761315 365.18497317291843L658.6587845422672 365.18497317291843L658.6587845422672 377.9200275203081L622.2428440117149 377.9200275203081L622.2428440117149 365.18497317291843L632.7466326387355 365.18497317291843L632.7466326387355 279.11284552585005L622.0954962754641 279.11284552585005ZM665.4578300864108 276.67108303940836L665.4578300864108 276.67108303940836Q660.1322619047751 276.67108303940836 655.2066375786773 278.8181500533484Q650.3020629291867 280.96521706728856 646.6604688761315 284.7541588565946L646.6604688761315 284.7541588565946L646.6604688761315 326.2641211261027Q649.1022313625732 328.7690326423661 653.6700111863477 330.7687519200554Q658.2167413335148 332.76847119774476 665.0157868776585 332.76847119774476L665.0157868776585 332.76847119774476Q669.751964114291 332.76847119774476 674.1302968486001 330.91609965630624Q678.4875799063021 329.084777791475 681.8134288102484 325.4221340618125Q685.1603273908021 321.7384406555428 687.1389969918841 316.3497234440853Q689.1387162695735 310.93995655602055 689.1387162695735 303.8462155393754L689.1387162695735 303.8462155393754Q689.1387162695735 297.32081579112617 687.2652950515277 292.2899430819921Q685.3708241568746 287.259070372858 682.1502236359646 283.7858737326608Q678.9296231150545 280.31267709246356 674.6354890871743 278.5024049042396Q670.3413550592941 276.67108303940836 665.4578300864108 276.67108303940836ZM762.7704850417539 240.63403668778662L762.7704850417539 227.9200320170042L786.9776131400978 227.9200320170042L786.9776131400978 330.32670871130307L798.2181404483723 330.32670871130307L798.2181404483723 343.06176305869275L773.2111246389526 343.06176305869275L773.2111246389526 336.7679097531233Q769.5063815560757 340.53580186582207 764.6228565831923 342.66181920315483Q759.739331610309 344.76678686388044 753.5296770111686 344.76678686388044L753.5296770111686 344.76678686388044Q745.7623463430913 344.76678686388044 739.0685491819839 342.0724282581518Q732.3747520208766 339.3570199758157 727.4491276947788 334.13670017721637Q722.523503368681 328.9374300552242 719.7449460565232 321.33849680000486Q716.9663887443654 313.7606132213928 716.9663887443654 303.99356327562623L716.9663887443654 303.99356327562623Q716.9663887443654 295.1105997473643 719.6396976734869 287.8274116412539Q722.2919569260011 280.5231738585361 727.1754818988844 275.38705276636574Q732.0590068717678 270.2509316741954 738.9422511223404 267.3881756556086Q745.825495372913 264.54646931362913 754.2664156924225 264.54646931362913L754.2664156924225 264.54646931362913Q759.823530316738 264.54646931362913 764.4123598171198 265.7673505568499Q769.0011893175015 266.9882318000707 773.2111246389526 270.01938523151557L773.2111246389526 270.01938523151557L773.2111246389526 240.63403668778662L762.7704850417539 240.63403668778662ZM755.2978498461781 332.76847119774476L755.2978498461781 332.76847119774476Q761.4443554154967 332.76847119774476 765.591141707126 330.9581990095207Q769.7379279987555 329.1479268212967 773.2111246389526 325.5273824448488L773.2111246389526 325.5273824448488L773.2111246389526 282.6070918426544Q769.5063815560757 279.49173970478057 764.7070552896213 278.0814113720945Q759.8866793465598 276.67108303940836 754.8558066374256 276.67108303940836L754.8558066374256 276.67108303940836Q749.9722816645424 276.67108303940836 745.6781476366622 278.5024049042396Q741.3840136087821 280.31267709246356 738.163413087872 283.7858737326608Q734.963862243569 287.259070372858 733.1114907021306 292.2899430819921Q731.2591191606921 297.32081579112617 731.2591191606921 303.8462155393754L731.2591191606921 303.8462155393754Q731.2591191606921 310.93995655602055 733.0272919957016 316.3497234440853Q734.8165145073183 321.7384406555428 737.9950156750139 325.4221340618125Q741.1735168427094 329.084777791475 745.6149986068405 330.91609965630624Q750.0564803709714 332.76847119774476 755.2978498461781 332.76847119774476Z " fill="#f4a896" transform="matrix(1.096191586408942,0,0,1.096191586408942,0,-32.05839950146499)"/></g></svg>