<svg width="1400" height="560" viewBox="0 0 1400 560" xmlns="http://www.w3.org/2000/svg" xmlns:xlink="http://www.w3.org/1999/xlink">
  <rect width="1400" height="560" fill="#00b2ff"/>
  <g transform="translate(535, 80) scale(2.5)">
    <path id="path111" style="fill:#00b2ff;fill-opacity:1;stroke:#e5f7ff;stroke-width:2" d="M 132.29168,66.145836 A 66.145844,66.145836 0 0 1 66.145836,132.29167 66.145844,66.145836 0 0 1 -7.6293945e-6,66.145836 66.145844,66.145836 0 0 1 66.145836,0 66.145844,66.145836 0 0 1 132.29168,66.145836 Z"/>
    <g transform="matrix(0.89266763,0,0,0.89266763,5.5336428,8.0597213)">
      <path d="m 19.218448,85.54734 q -4.682047,0 -8.176619,-2.341024 Q 7.5472575,80.865292 5.6133683,76.658235 3.713407,72.451178 3.713407,66.853078 q 0,-5.530245 1.9338892,-9.703374 1.967817,-4.207057 5.4284608,-6.548081 3.494572,-2.374952 8.074835,-2.374952 2.341024,0 4.308841,0.64463 1.967817,0.610702 3.5285,1.866033 1.560682,1.255332 2.71423,3.189221 h 0.03393 V 34.248385 H 39.71089 V 84.800926 H 29.871803 V 79.30461 h -0.03393 q -1.051765,2.0696 -2.646375,3.494571 -1.560682,1.391043 -3.596355,2.069601 -2.035673,0.678558 -4.376697,0.678558 z m 2.578519,-8.142692 q 2.544591,0 4.410625,-1.289259 1.899961,-1.323187 2.951725,-3.698139 1.051764,-2.374952 1.051764,-5.564172 0,-3.223149 -1.051764,-5.564173 -1.051764,-2.374951 -2.951725,-3.664211 -1.866034,-1.323187 -4.410625,-1.323187 -2.408879,0 -4.207057,1.255331 -1.798178,1.255332 -2.816014,3.596356 -0.983909,2.341023 -0.983909,5.699884 0,3.35886 0.983909,5.733811 1.017836,2.341024 2.816014,3.596356 1.798178,1.221403 4.207057,1.221403 z" fill="#e5f7ff" />
      <path d="M 46.801815,98.98278 V 48.973085 h 9.873013 v 4.851687 h 0.101783 q 1.119621,-1.866034 2.680303,-3.087438 1.59461,-1.255331 3.596355,-1.866033 2.035673,-0.64463 4.342769,-0.64463 4.580264,0 8.040908,2.374952 3.494571,2.341024 5.42846,6.548081 1.967818,4.173129 1.967818,9.703374 0,5.5981 -1.93389,9.805157 -1.933889,4.207057 -5.394533,6.548081 -3.460643,2.341024 -8.176619,2.341024 -2.341023,0 -4.342768,-0.678558 -1.967817,-0.678558 -3.5285,-2.035673 -1.526755,-1.357115 -2.544591,-3.392788 H 56.810539 V 98.98278 Z M 64.749663,77.404648 q 2.442808,0 4.207057,-1.221403 1.798178,-1.255332 2.782087,-3.596356 1.017836,-2.374951 1.017836,-5.733811 0,-3.358861 -1.017836,-5.699884 -0.983909,-2.341024 -2.782087,-3.596356 -1.764249,-1.255331 -4.207057,-1.255331 -2.510663,0 -4.444552,1.323187 -1.899961,1.28926 -2.951726,3.664211 -1.017836,2.341024 -1.017836,5.564173 0,3.18922 1.017836,5.564172 1.051765,2.374952 2.951726,3.698139 1.933889,1.289259 4.444552,1.289259 z" fill="#e5f7ff" />
      <path d="m 102.2739,85.54734 q -4.682049,0 -8.17662,-2.341024 -3.494572,-2.341024 -5.428461,-6.548081 -1.899962,-4.207057 -1.899962,-9.805157 0,-5.530245 1.93389,-9.703374 1.967817,-4.207057 5.42846,-6.548081 3.494572,-2.374952 8.074833,-2.374952 2.34103,0 4.30884,0.64463 1.96782,0.610702 3.5285,1.866033 1.56069,1.255332 2.71423,3.189221 h 0.0339 v -19.67817 h 9.9748 v 50.552541 h -9.83909 V 79.30461 h -0.0339 q -1.05177,2.0696 -2.64638,3.494571 -1.56068,1.391043 -3.59635,2.069601 -2.03568,0.678558 -4.3767,0.678558 z m 2.57852,-8.142692 q 2.54459,0 4.41062,-1.289259 1.89996,-1.323187 2.95173,-3.698139 1.05176,-2.374952 1.05176,-5.564172 0,-3.223149 -1.05176,-5.564173 -1.05177,-2.374951 -2.95173,-3.664211 -1.86603,-1.323187 -4.41062,-1.323187 -2.40888,0 -4.20706,1.255331 -1.798177,1.255332 -2.816014,3.596356 -0.983908,2.341023 -0.983908,5.699884 0,3.35886 0.983908,5.733811 1.017837,2.341024 2.816014,3.596356 1.79818,1.221403 4.20706,1.221403 z" fill="#e5f7ff" />
    </g>
  </g>
  <text x="700" y="500" font-family="Inter, sans-serif" font-weight="700" font-size="80" fill="white" text-anchor="middle">Digital Pāḷi Dictionary</text>
</svg>
