<?xml version="1.0" encoding="UTF-8" standalone="no"?>
<!-- Created with Inkscape (http://www.inkscape.org/) -->

<svg
   width="600"
   height="600"
   viewBox="0 0 158.75 158.75"
   version="1.1"
   id="svg5"
   xml:space="preserve"
   sodipodi:docname="dpd-icon.svg"
   inkscape:version="1.2.2 (b0a8486541, 2022-12-01)"
   xmlns:inkscape="http://www.inkscape.org/namespaces/inkscape"
   xmlns:sodipodi="http://sodipodi.sourceforge.net/DTD/sodipodi-0.dtd"
   xmlns="http://www.w3.org/2000/svg"
   xmlns:svg="http://www.w3.org/2000/svg">
  <sodipodi:namedview
   id="namedview7"
   pagecolor="#ffffff"
   bordercolor="#000000"
   borderopacity="0.25"
   inkscape:showpageshadow="2"
   inkscape:pageopacity="0.0"
   inkscape:pagecheckerboard="0"
   inkscape:deskcolor="#d1d1d1"
   inkscape:document-units="mm"
   showgrid="true"
   inkscape:zoom="1.1893044"
   inkscape:cx="249.30539"
   inkscape:cy="281.67726"
   inkscape:window-width="2048"
   inkscape:window-height="1252"
   inkscape:window-x="0"
   inkscape:window-y="0"
   inkscape:window-maximized="1"
   inkscape:current-layer="layer1">
    <inkscape:grid
   type="xygrid"
   id="grid9801"
   spacingx="13.229167"
   spacingy="13.229167"
   originx="0"
   originy="0" />
  </sodipodi:namedview>
  <defs
   id="defs2">
    <rect
   x="623.5495"
   y="-94.372818"
   width="484.21533"
   height="376.88699"
   id="rect9793" />
    <rect
   x="-321.14526"
   y="85.608353"
   width="283.33105"
   height="181.75908"
   id="rect3173" />
    <rect
   x="53.86557"
   y="95.434036"
   width="392.08252"
   height="309.07333"
   id="rect3161" />
  </defs>
  <g
   inkscape:label="dpd logo"
   inkscape:groupmode="layer"
   id="layer1">
    <path
   id="path4748"
   style="font-weight:bold;font-size:69.4843px;font-family:Inter;-inkscape-font-specification:'Inter Bold';text-align:center;text-anchor:middle;display:inline;fill:none;fill-rule:evenodd;stroke:#000000;stroke-width:5;stroke-opacity:1"
   inkscape:label="outer circle"
   d="M 145.52084,79.375 A 66.145836,66.145836 0 0 1 79.375,145.52084 66.145836,66.145836 0 0 1 13.229164,79.375 66.145836,66.145836 0 0 1 79.375,13.229164 66.145836,66.145836 0 0 1 145.52084,79.375 Z" />
    <path
   id="path1527"
   style="font-weight:bold;font-size:69.4843px;font-family:Inter;-inkscape-font-specification:'Inter Bold';text-align:center;text-anchor:middle;stroke-width:0.273645;stroke:none;stroke-opacity:1;fill-opacity:1"
   inkscape:label="dpd"
   d="m 45.307312,51.861434 v 17.565853 h -0.03049 c -0.686489,-1.150879 -1.493812,-2.099793 -2.422591,-2.846855 -0.92878,-0.747061 -1.979125,-1.302095 -3.150196,-1.665532 -1.17107,-0.383625 -2.453106,-0.575675 -3.846277,-0.575675 -2.725765,0 -5.128169,0.706924 -7.207828,2.120284 -2.059468,1.393169 -3.675146,3.341455 -4.846216,5.845122 -1.150879,2.483475 -1.725993,5.370892 -1.725993,8.662004 0,3.33149 0.565333,6.24877 1.696021,8.752436 1.150879,2.503667 2.76604,4.452469 4.845698,5.845638 2.07966,1.39317 4.512958,2.089278 7.299297,2.089278 1.39317,0 2.695286,-0.20183 3.906738,-0.605647 1.211452,-0.403818 2.281361,-1.019608 3.21014,-1.847433 0.948971,-0.848016 1.736729,-1.887547 2.362646,-3.119189 h 0.02998 v 4.906161 h 8.783443 V 51.861434 Z m 74.140698,0 v 17.565853 h -0.03 c -0.68649,-1.150879 -1.49432,-2.099793 -2.42311,-2.846855 -0.92878,-0.747061 -1.97861,-1.302095 -3.14968,-1.665532 -1.17106,-0.383625 -2.4531,-0.575675 -3.84628,-0.575675 -2.72576,0 -5.12868,0.706924 -7.20834,2.120284 -2.05947,1.393169 -3.674631,3.341455 -4.8457,5.845122 -1.15088,2.483475 -1.726511,5.370892 -1.726511,8.662004 0,3.33149 0.565332,6.24877 1.696022,8.752436 1.150878,2.503667 2.766559,4.452469 4.846219,5.845638 2.07965,1.39317 4.51244,2.089278 7.29878,2.089278 1.39316,0 2.69527,-0.20183 3.90673,-0.605647 1.21145,-0.403818 2.28188,-1.019608 3.21066,-1.847433 0.94897,-0.848016 1.73621,-1.887547 2.36213,-3.119189 h 0.0305 v 4.906161 h 8.78293 V 51.861434 Z M 78.924898,64.339225 c -1.372978,0 -2.664797,0.19205 -3.876249,0.575675 -1.191261,0.363437 -2.261686,0.918471 -3.210657,1.665532 -0.928779,0.726871 -1.726319,1.645406 -2.392619,2.755905 h -0.09095 v -4.331002 h -8.812899 v 44.642235 h 8.934338 V 92.202641 h 0.09095 c 0.605724,1.211452 1.36259,2.221121 2.271178,3.028755 0.928781,0.807635 1.978609,1.413126 3.149679,1.816944 1.191261,0.403817 2.483597,0.605647 3.876766,0.605647 2.80653,0 5.239829,-0.696108 7.299296,-2.089278 2.059468,-1.393169 3.664331,-3.341971 4.81521,-5.845638 1.15088,-2.503666 1.726509,-5.420946 1.726509,-8.752436 0,-3.291112 -0.585411,-6.178529 -1.756481,-8.662004 -1.150879,-2.503667 -2.766558,-4.451953 -4.846216,-5.845122 -2.059468,-1.41336 -4.452091,-2.120284 -7.177857,-2.120284 z m -40.704492,7.208346 c 1.514315,0 2.82673,0.393363 3.937227,1.180806 1.130689,0.767253 2.009065,1.857759 2.634982,3.271118 0.625916,1.39317 0.938444,3.049007 0.938444,4.96714 0,1.897939 -0.312528,3.55326 -0.938444,4.966621 -0.625917,1.413361 -1.504293,2.514164 -2.634982,3.301607 -1.110497,0.767252 -2.422912,1.150834 -3.937227,1.150834 -1.43355,0 -2.685727,-0.363502 -3.755843,-1.090373 -1.070116,-0.747062 -1.907816,-1.817486 -2.513541,-3.210656 -0.585536,-1.41336 -0.8785,-3.119139 -0.8785,-5.118033 0,-1.998897 0.292964,-3.694894 0.8785,-5.088062 0.605725,-1.39317 1.443425,-2.463595 2.513541,-3.210657 1.070116,-0.747062 2.322293,-1.120345 3.755843,-1.120345 z m 38.342362,0 c 1.453743,0 2.705403,0.373283 3.755327,1.120345 1.070116,0.747062 1.898034,1.817487 2.483569,3.210657 0.605725,1.393168 0.908472,3.089165 0.908472,5.088062 0,1.998894 -0.302747,3.704673 -0.908472,5.118033 -0.585535,1.39317 -1.413453,2.463594 -2.483569,3.210656 -1.049924,0.726871 -2.301584,1.090373 -3.755327,1.090373 -1.494123,0 -2.816837,-0.383582 -3.967716,-1.150834 -1.130688,-0.787443 -2.009064,-1.888246 -2.634981,-3.301607 -0.605726,-1.413361 -0.908472,-3.068682 -0.908472,-4.966621 0,-1.918133 0.302746,-3.57397 0.908472,-4.96714 0.625917,-1.413359 1.504293,-2.503865 2.634981,-3.271118 1.150879,-0.787443 2.473593,-1.180806 3.967716,-1.180806 z m 35.798332,0 c 1.51431,0 2.82673,0.393363 3.93723,1.180806 1.13068,0.767253 2.00906,1.857759 2.63498,3.271118 0.62591,1.39317 0.93896,3.049007 0.93896,4.96714 0,1.897939 -0.31305,3.55326 -0.93896,4.966621 -0.62592,1.413361 -1.5043,2.514164 -2.63498,3.301607 -1.1105,0.767252 -2.42292,1.150834 -3.93723,1.150834 -1.43355,0 -2.68521,-0.363502 -3.75533,-1.090373 -1.07011,-0.747062 -1.90833,-1.817486 -2.51405,-3.210656 -0.58554,-1.41336 -0.87799,-3.119139 -0.87799,-5.118033 0,-1.998897 0.29245,-3.694894 0.87799,-5.088062 0.60572,-1.39317 1.44394,-2.463595 2.51405,-3.210657 1.07012,-0.747062 2.32178,-1.120345 3.75533,-1.120345 z" />
  </g>
</svg>
